<svg xmlns="http://www.w3.org/2000/svg" xmlns:xlink="http://www.w3.org/1999/xlink" width="500" zoomAndPan="magnify" viewBox="0 0 375 374.999991" height="500" preserveAspectRatio="xMidYMid meet" version="1.0"><defs><g/><clipPath id="a808aff02e"><path d="M 218.574219 233.796875 L 238.175781 233.796875 L 238.175781 253.398438 L 218.574219 253.398438 Z M 218.574219 233.796875 " clip-rule="nonzero"/></clipPath><clipPath id="16213f6f30"><path d="M 228.375 233.796875 C 222.960938 233.796875 218.574219 238.1875 218.574219 243.597656 C 218.574219 249.011719 222.960938 253.398438 228.375 253.398438 C 233.789062 253.398438 238.175781 249.011719 238.175781 243.597656 C 238.175781 238.1875 233.789062 233.796875 228.375 233.796875 Z M 228.375 233.796875 " clip-rule="nonzero"/></clipPath></defs><g clip-path="url(#a808aff02e)"><g clip-path="url(#16213f6f30)"><path fill="#000000" d="M 218.574219 233.796875 L 238.175781 233.796875 L 238.175781 253.398438 L 218.574219 253.398438 Z M 218.574219 233.796875 " fill-opacity="1" fill-rule="nonzero"/></g></g><g fill="#000000" fill-opacity="1"><g transform="translate(152.225838, 233.642374)"><g><path d="M 34.84375 1.1875 C 13.488281 1.1875 2.8125 -9.640625 2.8125 -31.296875 L 2.953125 -39.859375 L 28.796875 -39.859375 L 28.9375 -27.171875 C 28.9375 -24.609375 29.425781 -22.660156 30.40625 -21.328125 C 31.394531 -20.003906 33.023438 -19.34375 35.296875 -19.34375 C 38.734375 -19.34375 40.453125 -22.148438 40.453125 -27.765625 C 40.453125 -31.890625 39.640625 -35.132812 38.015625 -37.5 C 36.390625 -39.863281 33.804688 -42.375 30.265625 -45.03125 L 16.53125 -55.671875 C 11.8125 -59.304688 8.414062 -63.066406 6.34375 -66.953125 C 4.28125 -70.847656 3.25 -76.335938 3.25 -83.421875 C 3.25 -88.929688 4.695312 -93.628906 7.59375 -97.515625 C 10.5 -101.410156 14.363281 -104.34375 19.1875 -106.3125 C 24.019531 -108.28125 29.390625 -109.265625 35.296875 -109.265625 C 56.253906 -109.265625 66.734375 -98.832031 66.734375 -77.96875 L 66.734375 -75.890625 L 40.015625 -75.890625 L 40.015625 -80.03125 C 40.015625 -82.59375 39.59375 -84.78125 38.75 -86.59375 C 37.914062 -88.414062 36.515625 -89.328125 34.546875 -89.328125 C 32.773438 -89.328125 31.421875 -88.8125 30.484375 -87.78125 C 29.554688 -86.75 29.09375 -85.347656 29.09375 -83.578125 C 29.09375 -79.640625 30.617188 -76.585938 33.671875 -74.421875 L 49.609375 -62.75 C 55.316406 -58.519531 59.695312 -53.914062 62.75 -48.9375 C 65.800781 -43.96875 67.328125 -37.695312 67.328125 -30.125 C 67.328125 -20.082031 64.472656 -12.351562 58.765625 -6.9375 C 53.054688 -1.519531 45.082031 1.1875 34.84375 1.1875 Z M 34.84375 1.1875 "/></g></g></g></svg>